<?xml version="1.0" encoding="utf-8"?><!DOCTYPE svg PUBLIC "-//W3C//DTD SVG 1.1//EN" "http://www.w3.org/Graphics/SVG/1.1/DTD/svg11.dtd"><svg xmlns="http://www.w3.org/2000/svg" xmlns:xlink="http://www.w3.org/1999/xlink"><symbol viewBox="0 0 16 16" id="facebook"><path d="M9.5 3H12V0H9.5C7.57 0 6 1.57 6 3.5V5H4v3h2v8h3V8h2.5l.5-3H9V3.5c0-.271.229-.5.5-.5z"/></symbol><symbol viewBox="0 0 16 16" id="google-plus"><path d="M5.091 7.147v1.747h2.888c-.116.75-.872 2.197-2.888 2.197-1.737 0-3.156-1.441-3.156-3.216s1.419-3.216 3.156-3.216c.991 0 1.65.422 2.028.784L8.5 4.112c-.888-.828-2.037-1.331-3.409-1.331C2.275 2.784 0 5.059 0 7.875s2.275 5.091 5.091 5.091c2.937 0 4.888-2.066 4.888-4.975 0-.334-.037-.591-.081-.844H5.092zM16 7h-1.5V5.5H13V7h-1.5v1.5H13V10h1.5V8.5H16z"/></symbol><symbol viewBox="0 0 16 16" id="instagram"><path d="M14.5 0h-13C.675 0 0 .675 0 1.5v13c0 .825.675 1.5 1.5 1.5h13c.825 0 1.5-.675 1.5-1.5v-13c0-.825-.675-1.5-1.5-1.5zM11 2.5c0-.275.225-.5.5-.5h2c.275 0 .5.225.5.5v2c0 .275-.225.5-.5.5h-2a.501.501 0 0 1-.5-.5v-2zM8 5a3.001 3.001 0 0 1 0 6 3.001 3.001 0 0 1 0-6zm6 8.5c0 .275-.225.5-.5.5h-11a.501.501 0 0 1-.5-.5V7h1.1A4.999 4.999 0 0 0 8 13a4.999 4.999 0 0 0 4.9-6H14v6.5z"/></symbol><symbol viewBox="0 0 16 16" id="linkedin"><path d="M6 6h2.767v1.418h.04C9.192 6.727 10.134 6 11.539 6 14.46 6 15 7.818 15 10.183V15h-2.885v-4.27c0-1.018-.021-2.329-1.5-2.329-1.502 0-1.732 1.109-1.732 2.255V15H6V6zM1 6h3v9H1V6zM4 3.5a1.5 1.5 0 1 1-3.001-.001A1.5 1.5 0 0 1 4 3.5z"/></symbol><symbol viewBox="0 0 16 16" id="pinterest"><path d="M8 1.069a6.93 6.93 0 0 0-2.525 13.384c-.059-.547-.116-1.391.025-1.988.125-.541.813-3.444.813-3.444s-.206-.416-.206-1.028c0-.963.559-1.684 1.253-1.684.591 0 .878.444.878.975 0 .594-.378 1.484-.575 2.306-.166.691.344 1.253 1.025 1.253 1.231 0 2.178-1.3 2.178-3.175 0-1.659-1.194-2.819-2.894-2.819-1.972 0-3.128 1.478-3.128 3.009 0 .597.228 1.234.516 1.581.056.069.066.128.047.2a95.89 95.89 0 0 1-.194.787c-.031.128-.1.153-.231.094-.866-.403-1.406-1.669-1.406-2.684 0-2.188 1.587-4.194 4.578-4.194 2.403 0 4.272 1.712 4.272 4.003 0 2.388-1.506 4.313-3.597 4.313-.703 0-1.362-.366-1.588-.797 0 0-.347 1.322-.431 1.647-.156.603-.578 1.356-.862 1.816a6.93 6.93 0 0 0 8.984-6.622 6.931 6.931 0 0 0-6.931-6.934z"/></symbol><symbol viewBox="0 0 16 16" id="tumblr"><path d="M9.001 7v3.659c0 .928-.012 1.463.086 1.727.098.262.342.534.609.691.354.212.758.318 1.214.318.81 0 1.289-.107 2.09-.633v2.405a9.089 9.089 0 0 1-1.833.639A7.93 7.93 0 0 1 9.369 16a4.9 4.9 0 0 1-1.725-.276 4.195 4.195 0 0 1-1.438-.79c-.398-.343-.672-.706-.826-1.091s-.23-.944-.23-1.676V6.556H3.003V4.29c.628-.204 1.331-.497 1.778-.877a4.386 4.386 0 0 0 1.08-1.374C6.133 1.505 6.32.825 6.422 0h2.579v4H13v3H9.001z"/></symbol><symbol viewBox="0 0 16 16" id="twitter"><path d="M16 3.538a6.461 6.461 0 0 1-1.884.516 3.301 3.301 0 0 0 1.444-1.816 6.607 6.607 0 0 1-2.084.797 3.28 3.28 0 0 0-2.397-1.034 3.28 3.28 0 0 0-3.197 4.028 9.321 9.321 0 0 1-6.766-3.431 3.284 3.284 0 0 0 1.015 4.381A3.301 3.301 0 0 1 .643 6.57v.041A3.283 3.283 0 0 0 3.277 9.83a3.291 3.291 0 0 1-1.485.057 3.293 3.293 0 0 0 3.066 2.281 6.586 6.586 0 0 1-4.862 1.359 9.286 9.286 0 0 0 5.034 1.475c6.037 0 9.341-5.003 9.341-9.341 0-.144-.003-.284-.009-.425a6.59 6.59 0 0 0 1.637-1.697z"/></symbol><symbol viewBox="0 0 16 16" id="youtube"><path d="M15.841 4.8s-.156-1.103-.637-1.587c-.609-.637-1.291-.641-1.603-.678-2.237-.163-5.597-.163-5.597-.163h-.006s-3.359 0-5.597.163c-.313.038-.994.041-1.603.678C.317 3.697.164 4.8.164 4.8S.005 6.094.005 7.391v1.213c0 1.294.159 2.591.159 2.591s.156 1.103.634 1.588c.609.637 1.409.616 1.766.684 1.281.122 5.441.159 5.441.159s3.363-.006 5.6-.166c.313-.037.994-.041 1.603-.678.481-.484.637-1.588.637-1.588s.159-1.294.159-2.591V7.39c-.003-1.294-.162-2.591-.162-2.591zm-9.494 5.275V5.578l4.322 2.256-4.322 2.241z"/></symbol></svg>