<?xml version="1.0" encoding="utf-8"?><!DOCTYPE svg PUBLIC "-//W3C//DTD SVG 1.1//EN" "http://www.w3.org/Graphics/SVG/1.1/DTD/svg11.dtd"><svg xmlns="http://www.w3.org/2000/svg" xmlns:xlink="http://www.w3.org/1999/xlink"><symbol viewBox="0 0 16 16" id="arrow-down6"><path d="M8 15.5L15.5 8H11V0H5v8H.5z"/></symbol><symbol viewBox="0 0 16 16" id="arrow-left6"><path d="M.5 8L8 15.5V11h8V5H8V.5z"/></symbol><symbol viewBox="0 0 16 16" id="arrow-right6"><path d="M15.5 8L8 .5V5H0v6h8v4.5z"/></symbol><symbol viewBox="0 0 16 16" id="arrow-up6"><path d="M8 .5L.5 8H5v8h6V8h4.5z"/></symbol><symbol viewBox="0 0 16 16" id="bubble"><path d="M8 1c4.418 0 8 2.91 8 6.5S12.418 14 8 14c-.424 0-.841-.027-1.247-.079-1.718 1.718-3.77 2.027-5.753 2.072v-.421c1.071-.525 2-1.48 2-2.572a3.01 3.01 0 0 0-.034-.448C1.157 11.36 0 9.54 0 7.5 0 3.91 3.582 1 8 1z"/></symbol><symbol viewBox="0 0 18 16" id="bubbles"><path d="M17 14.081c0 .711.407 1.327 1 1.628v.249a3.71 3.71 0 0 1-3.207-1.125 5.03 5.03 0 0 1-1.293.168c-2.485 0-4.5-1.791-4.5-4s2.015-4 4.5-4 4.5 1.791 4.5 4c0 .865-.309 1.665-.834 2.32a1.81 1.81 0 0 0-.166.761zM8 0c4.351 0 7.89 2.822 7.997 6.336a6.123 6.123 0 0 0-2.497-.524c-1.493 0-2.903.523-3.971 1.472C8.422 8.268 7.812 9.588 7.812 11c0 .698.149 1.373.433 1.997a10.089 10.089 0 0 1-1.493-.076c-1.718 1.718-3.77 2.027-5.753 2.072v-.421c1.071-.525 2-1.48 2-2.572a3.01 3.01 0 0 0-.034-.448C1.156 10.36-.001 8.54-.001 6.5c0-3.59 3.582-6.5 8-6.5z"/></symbol><symbol viewBox="0 0 16 16" id="cart"><path d="M6 14.5a1.5 1.5 0 1 1-3.001-.001A1.5 1.5 0 0 1 6 14.5zM16 14.5a1.5 1.5 0 1 1-3.001-.001A1.5 1.5 0 0 1 16 14.5zM16 8V2H4a1 1 0 0 0-1-1H0v1h2l.751 6.438A2 2 0 0 0 4 12h12v-1H4a1 1 0 0 1-1-1v-.01L16 8z"/></symbol><symbol viewBox="0 0 16 16" id="checkmark"><path d="M13.5 2L6 9.5 2.5 6 0 8.5l6 6 10-10z"/></symbol><symbol viewBox="0 0 16 16" id="cloud"><path d="M16 10.274a2.726 2.726 0 0 0-2.078-2.648A3.72 3.72 0 0 0 10.205 4a3.712 3.712 0 0 0-2.92 1.418 2.09 2.09 0 0 0-3.719 1.573 3.028 3.028 0 0 0-3.567 2.98A3.028 3.028 0 0 0 3.026 13H13.28a2.725 2.725 0 0 0 2.719-2.726z"/></symbol><symbol viewBox="0 0 16 16" id="cog"><path d="M14.59 9.535a3.053 3.053 0 0 1 1.127-4.164l-1.572-2.723a3.017 3.017 0 0 1-1.529.414A3.052 3.052 0 0 1 9.574 0H6.429a3.009 3.009 0 0 1-.406 1.535c-.839 1.454-2.706 1.948-4.17 1.106L.281 5.364a3 3 0 0 1 1.123 1.117 3.053 3.053 0 0 1-1.12 4.16l1.572 2.723c.448-.261.967-.41 1.522-.41A3.052 3.052 0 0 1 6.42 16h3.145a3.012 3.012 0 0 1 .406-1.519 3.053 3.053 0 0 1 4.163-1.11l1.572-2.723a3.008 3.008 0 0 1-1.116-1.113zM8 11.24a3.24 3.24 0 1 1 0-6.48 3.24 3.24 0 0 1 0 6.48z"/></symbol><symbol viewBox="0 0 16 16" id="cross"><path d="M15.854 12.854L11 8l4.854-4.854a.503.503 0 0 0 0-.707L13.561.146a.499.499 0 0 0-.707 0L8 5 3.146.146a.5.5 0 0 0-.707 0L.146 2.439a.499.499 0 0 0 0 .707L5 8 .146 12.854a.5.5 0 0 0 0 .707l2.293 2.293a.499.499 0 0 0 .707 0L8 11l4.854 4.854a.5.5 0 0 0 .707 0l2.293-2.293a.499.499 0 0 0 0-.707z"/></symbol><symbol viewBox="0 0 16 16" id="envelop"><path d="M15 2H1c-.55 0-1 .45-1 1v10c0 .55.45 1 1 1h14c.55 0 1-.45 1-1V3c0-.55-.45-1-1-1zm-1 2v.719L8 8.255 2 4.719V4h12zM2 12V6.46l6 3.536 6-3.536V12H2z"/></symbol><symbol viewBox="0 0 16 16" id="heart"><path d="M16 5.596A4.586 4.586 0 0 1 14.492 9h.008l-5 5c-.5.5-1 1-1.5 1s-1-.5-1.5-1L1.508 9A4.596 4.596 0 1 1 8 2.508a4.596 4.596 0 0 1 8 3.088z"/></symbol><symbol viewBox="0 0 16 16" id="home"><path d="M16 9.226l-8-6.21-8 6.21V6.694l8-6.21 8 6.21zM14 9v6H2V9l6-4.5z"/></symbol><symbol viewBox="0 0 16 16" id="info"><path d="M7 4.75c0-.412.338-.75.75-.75h.5c.412 0 .75.338.75.75v.5c0 .412-.338.75-.75.75h-.5A.753.753 0 0 1 7 5.25v-.5zM10 12H6v-1h1V8H6V7h3v4h1z"/><path d="M8 0a8 8 0 1 0 0 16A8 8 0 0 0 8 0zm0 14.5a6.5 6.5 0 1 1 0-13 6.5 6.5 0 0 1 0 13z"/></symbol><symbol viewBox="0 0 16 16" id="link"><path d="M6.879 9.934a.81.81 0 0 1-.575-.238 3.818 3.818 0 0 1 0-5.392l3-3C10.024.584 10.982.187 12 .187s1.976.397 2.696 1.117a3.818 3.818 0 0 1 0 5.392l-1.371 1.371a.813.813 0 0 1-1.149-1.149l1.371-1.371A2.19 2.19 0 0 0 12 1.812c-.584 0-1.134.228-1.547.641l-3 3a2.19 2.19 0 0 0 0 3.094.813.813 0 0 1-.575 1.387z"/><path d="M4 15.813a3.789 3.789 0 0 1-2.696-1.117 3.818 3.818 0 0 1 0-5.392l1.371-1.371a.813.813 0 0 1 1.149 1.149l-1.371 1.371A2.19 2.19 0 0 0 4 14.188c.585 0 1.134-.228 1.547-.641l3-3a2.19 2.19 0 0 0 0-3.094.813.813 0 0 1 1.149-1.149 3.818 3.818 0 0 1 0 5.392l-3 3A3.789 3.789 0 0 1 4 15.813z"/></symbol><symbol viewBox="0 0 16 16" id="list"><path d="M0 0h4v4H0zm6 1h10v2H6zM0 6h4v4H0zm6 1h10v2H6zm-6 5h4v4H0zm6 1h10v2H6z"/></symbol><symbol viewBox="0 0 16 16" id="lock"><path d="M14 6h-1V1c0-.55-.45-1-1-1H4c-.55 0-1 .45-1 1v5H2c-.55 0-1 .45-1 1v8c0 .55.45 1 1 1h12c.55 0 1-.45 1-1V7c0-.55-.45-1-1-1zm-5 7H7l.435-2.175a1 1 0 1 1 1.13 0L9 13zm2-7H5V2h6v4z"/></symbol><symbol viewBox="0 0 16 16" id="lock4"><path d="M9.25 7H9V4c0-1.654-1.346-3-3-3H4C2.346 1 1 2.346 1 4v3H.75a.753.753 0 0 0-.75.75v7.5c0 .412.338.75.75.75h8.5c.412 0 .75-.338.75-.75v-7.5A.753.753 0 0 0 9.25 7zM3 4c0-.551.449-1 1-1h2c.551 0 1 .449 1 1v3H3V4z"/></symbol><symbol viewBox="0 0 16 16" id="menu"><path d="M1 3h14v2H1V3zM1 7h14v2H1V7zM1 11h14v2H1v-2z"/></symbol><symbol viewBox="0 0 16 16" id="minus"><path d="M0 6.5v3a.5.5 0 0 0 .5.5h15a.5.5 0 0 0 .5-.5v-3a.5.5 0 0 0-.5-.5H.5a.5.5 0 0 0-.5.5z"/></symbol><symbol viewBox="0 0 16 16" id="notification"><path d="M8 1.5c-1.736 0-3.369.676-4.596 1.904S1.5 6.264 1.5 8c0 1.736.676 3.369 1.904 4.596S6.264 14.5 8 14.5c1.736 0 3.369-.676 4.596-1.904S14.5 9.736 14.5 8c0-1.736-.676-3.369-1.904-4.596S9.736 1.5 8 1.5zM8 0a8 8 0 1 1 0 16A8 8 0 0 1 8 0zM7 11h2v2H7zm0-8h2v6H7z"/></symbol><symbol viewBox="0 0 16 16" id="pencil"><path d="M13.5 0a2.5 2.5 0 0 1 2 4l-1 1L11 1.5l1-1c.418-.314.937-.5 1.5-.5zM1 11.5L0 16l4.5-1 9.25-9.25-3.5-3.5L1 11.5zm10.181-5.819l-7 7-.862-.862 7-7 .862.862z"/></symbol><symbol viewBox="0 0 16 16" id="phone"><path d="M15.095 2.763c-.444-.375-1.053-.702-1.809-.972-1.427-.51-3.305-.79-5.286-.79-1.981 0-3.859.281-5.286.79-.756.27-1.365.597-1.809.972C.157 3.395 0 4.056 0 4.5v1c0 .265.105.52.293.707l.5.5a1 1 0 0 0 1.078.221l2.5-1A1 1 0 0 0 5 5V3.256A16.932 16.932 0 0 1 8 3c1.059 0 2.085.089 3 .256V5c0 .409.249.777.629.928l2.5 1a1 1 0 0 0 1.078-.221l.5-.5A1 1 0 0 0 16 5.5v-1c0-.444-.157-1.106-.905-1.737z"/><path d="M14.931 12.44a18.358 18.358 0 0 0-1.006-2.618c-.904-1.872-2.426-2.821-4.426-2.821h-3c-2 0-3.522.949-4.426 2.821-.624 1.293-.99 2.565-1.006 2.618-.188.656-.085 1.311.281 1.797s.968.764 1.65.764h10c.683 0 1.284-.278 1.65-.764s.469-1.14.281-1.797zM8 13a2 2 0 1 1-.001-3.999A2 2 0 0 1 8 13z"/></symbol><symbol viewBox="0 0 16 16" id="phone2"><path d="M11 10c-1 1-1 2-2 2s-2-1-3-2-2-2-2-3 1-1 2-2-2-4-3-4-3 3-3 3c0 2 2.055 6.055 4 8s6 4 8 4c0 0 3-2 3-3s-3-4-4-3z"/></symbol><symbol viewBox="0 0 16 16" id="plus"><path d="M15.5 6H10V.5a.5.5 0 0 0-.5-.5h-3a.5.5 0 0 0-.5.5V6H.5a.5.5 0 0 0-.5.5v3a.5.5 0 0 0 .5.5H6v5.5a.5.5 0 0 0 .5.5h3a.5.5 0 0 0 .5-.5V10h5.5a.5.5 0 0 0 .5-.5v-3a.5.5 0 0 0-.5-.5z"/></symbol><symbol viewBox="0 0 16 16" id="question"><path d="M7 11h2v2H7zm4-7a1 1 0 0 1 1 1v3l-3 2H7V9l3-2V6H5V4h6zM8 1.5c-1.736 0-3.369.676-4.596 1.904S1.5 6.264 1.5 8c0 1.736.676 3.369 1.904 4.596S6.264 14.5 8 14.5c1.736 0 3.369-.676 4.596-1.904S14.5 9.736 14.5 8c0-1.736-.676-3.369-1.904-4.596S9.736 1.5 8 1.5zM8 0a8 8 0 1 1 0 16A8 8 0 0 1 8 0z"/></symbol><symbol viewBox="0 0 16 16" id="radio-checked"><path d="M8 0a8 8 0 1 0 0 16A8 8 0 0 0 8 0zm0 14A6 6 0 1 1 8 2a6 6 0 0 1 0 12zM5 8a3 3 0 1 1 6 0 3 3 0 0 1-6 0z"/></symbol><symbol viewBox="0 0 16 16" id="radio-unchecked"><path d="M8 0a8 8 0 1 0 0 16A8 8 0 0 0 8 0zm0 14A6 6 0 1 1 8 2a6 6 0 0 1 0 12z"/></symbol><symbol viewBox="0 0 16 16" id="search"><path d="M16 13.5l-4.695-4.695a6 6 0 1 0-2.5 2.5L13.5 16l2.5-2.5zM2 6a4 4 0 1 1 8 0 4 4 0 0 1-8 0z"/></symbol><symbol viewBox="0 0 16 16" id="search3"><path d="M15.504 13.616l-3.79-3.223c-.392-.353-.811-.514-1.149-.499a6 6 0 1 0-.672.672c-.016.338.146.757.499 1.149l3.223 3.79c.552.613 1.453.665 2.003.115s.498-1.452-.115-2.003zM6 10a4 4 0 1 1 0-8 4 4 0 0 1 0 8z"/></symbol><symbol viewBox="0 0 16 16" id="star-full"><path d="M15.976 6.345a.5.5 0 0 0-.476-.346h-5.367L8.475.919a.5.5 0 0 0-.95 0l-1.658 5.08H.5a.5.5 0 0 0-.293.905l4.34 3.139-1.657 5.079a.5.5 0 0 0 .769.56l4.342-3.141 4.342 3.141a.5.5 0 0 0 .769-.56l-1.657-5.079 4.34-3.139a.5.5 0 0 0 .183-.559z"/></symbol><symbol viewBox="0 0 16 16" id="table2"><path d="M0 1v14h16V1H0zm6 9V7h4v3H6zm4 1v3H6v-3h4zm0-8v3H6V3h4zM5 3v3H1V3h4zM1 7h4v3H1V7zm10 0h4v3h-4V7zm0-1V3h4v3h-4zM1 11h4v3H1v-3zm10 3v-3h4v3h-4z"/></symbol><symbol viewBox="0 0 16 16" id="user"><path d="M9 11.041v-.825c1.102-.621 2-2.168 2-3.716C11 4.015 11 2 8 2S5 4.015 5 6.5c0 1.548.898 3.095 2 3.716v.825c-3.392.277-6 1.944-6 3.959h14c0-2.015-2.608-3.682-6-3.959z"/></symbol></svg>